<svg width="34" height="25" viewBox="0 0 34 25" fill="none" xmlns="http://www.w3.org/2000/svg">
<path fill-rule="evenodd" clip-rule="evenodd" d="M33.1096 10.9182L23.2706 1.0792C22.794 0.602631 22.0995 0.690581 21.6233 1.16684L21.5982 1.19187C21.1123 1.67784 21.0161 2.35935 21.5024 2.84564L29.0611 10.4044C29.4554 10.7987 29.1713 11.4754 28.6154 11.4744L1.26005 11.4435C0.57857 11.4424 0.0246031 11.9964 0.0248259 12.677C0.0259325 13.3584 0.577655 13.9119 1.25824 13.9104L28.6238 13.885C29.1806 13.8852 29.456 14.554 29.0628 14.9472L21.5921 22.418C21.1114 22.8986 21.1294 23.6782 21.6113 24.16L21.636 24.1848C22.1179 24.6667 22.8798 24.667 23.3604 24.1863L33.0922 14.4545C34.0686 13.4781 34.0866 11.8952 33.1096 10.9182Z" fill="#0C58A5"/>
</svg>
